<svg xmlns="http://www.w3.org/2000/svg" width="400" height="111" viewBox="0 0 400 111" fill="none">
<mask id="path-1-outside-1_3_1094" maskUnits="userSpaceOnUse" x="-415" y="-0.199219" width="854" height="111" fill="black">
<rect fill="white" x="-415" y="-0.199219" width="854" height="111"/>
<path d="M-341.55 2.80077H-317.25V107.801H-341.55V2.80077ZM-389.25 107.801H-413.55V2.80077H-389.25V107.801ZM-339.75 64.7508H-391.05V44.2008H-339.75V64.7508ZM-302.407 107.801V2.80077H-278.107V107.801H-302.407ZM-212.489 109.601C-220.789 109.601 -228.439 108.301 -235.439 105.701C-242.339 103.001 -248.389 99.2008 -253.589 94.3008C-258.689 89.4008 -262.689 83.6508 -265.589 77.0508C-268.389 70.4508 -269.789 63.2008 -269.789 55.3008C-269.789 47.4008 -268.389 40.1508 -265.589 33.5508C-262.689 26.9508 -258.639 21.2008 -253.439 16.3008C-248.239 11.4008 -242.139 7.65077 -235.139 5.05077C-228.139 2.35078 -220.439 1.00078 -212.039 1.00078C-202.739 1.00078 -194.389 2.55078 -186.989 5.65077C-179.489 8.75077 -173.189 13.2508 -168.089 19.1508L-183.689 33.5508C-187.489 29.5508 -191.639 26.6008 -196.139 24.7008C-200.639 22.7008 -205.539 21.7008 -210.839 21.7008C-215.939 21.7008 -220.589 22.5008 -224.789 24.1008C-228.989 25.7008 -232.639 28.0008 -235.739 31.0008C-238.739 34.0008 -241.089 37.5508 -242.789 41.6508C-244.389 45.7508 -245.189 50.3008 -245.189 55.3008C-245.189 60.2008 -244.389 64.7008 -242.789 68.8008C-241.089 72.9008 -238.739 76.5008 -235.739 79.6008C-232.639 82.6008 -229.039 84.9008 -224.939 86.5008C-220.739 88.1008 -216.139 88.9008 -211.139 88.9008C-206.339 88.9008 -201.689 88.1508 -197.189 86.6508C-192.589 85.0508 -188.139 82.4008 -183.839 78.7008L-170.039 96.2508C-175.739 100.551 -182.389 103.851 -189.989 106.151C-197.489 108.451 -204.989 109.601 -212.489 109.601ZM-192.239 93.1008V53.6508H-170.039V96.2508L-192.239 93.1008ZM-85.466 2.80077H-61.166V107.801H-85.466V2.80077ZM-133.166 107.801H-157.466V2.80077H-133.166V107.801ZM-83.666 64.7508H-134.966V44.2008H-83.666V64.7508ZM58.157 2.80077H82.457V107.801H58.157V2.80077ZM10.457 107.801H-13.843V2.80077H10.457V107.801ZM59.957 64.7508H8.65703V44.2008H59.957V64.7508ZM119.65 45.1008H170.2V64.0008H119.65V45.1008ZM121.45 88.3008H178.6V107.801H97.2996V2.80077H176.65V22.3008H121.45V88.3008ZM210.284 45.1008H260.834V64.0008H210.284V45.1008ZM212.084 88.3008H269.234V107.801H187.934V2.80077H267.284V22.3008H212.084V88.3008ZM278.569 107.801V2.80077H302.869V88.0008H355.519V107.801H278.569ZM393.157 109.601C384.757 109.601 376.707 108.501 369.007 106.301C361.307 104.001 355.107 101.051 350.407 97.4508L358.657 79.1508C363.157 82.3508 368.457 85.0008 374.557 87.1008C380.757 89.1008 387.007 90.1008 393.307 90.1008C398.107 90.1008 401.957 89.6508 404.857 88.7508C407.857 87.7508 410.057 86.4008 411.457 84.7008C412.857 83.0008 413.557 81.0508 413.557 78.8508C413.557 76.0508 412.457 73.8508 410.257 72.2508C408.057 70.5508 405.157 69.2008 401.557 68.2008C397.957 67.1008 393.957 66.1008 389.557 65.2008C385.257 64.2008 380.907 63.0008 376.507 61.6008C372.207 60.2008 368.257 58.4008 364.657 56.2008C361.057 54.0008 358.107 51.1008 355.807 47.5008C353.607 43.9008 352.507 39.3008 352.507 33.7008C352.507 27.7008 354.107 22.2508 357.307 17.3508C360.607 12.3508 365.507 8.40077 372.007 5.50078C378.607 2.50078 386.857 1.00078 396.757 1.00078C403.357 1.00078 409.857 1.80078 416.257 3.40078C422.657 4.90077 428.307 7.20077 433.207 10.3008L425.707 28.7508C420.807 25.9508 415.907 23.9008 411.007 22.6008C406.107 21.2008 401.307 20.5008 396.607 20.5008C391.907 20.5008 388.057 21.0508 385.057 22.1508C382.057 23.2508 379.907 24.7008 378.607 26.5008C377.307 28.2008 376.657 30.2008 376.657 32.5008C376.657 35.2008 377.757 37.4008 379.957 39.1008C382.157 40.7008 385.057 42.0008 388.657 43.0008C392.257 44.0008 396.207 45.0008 400.507 46.0008C404.907 47.0008 409.257 48.1508 413.557 49.4508C417.957 50.7508 421.957 52.5008 425.557 54.7008C429.157 56.9008 432.057 59.8008 434.257 63.4008C436.557 67.0008 437.707 71.5508 437.707 77.0508C437.707 82.9508 436.057 88.3508 432.757 93.2508C429.457 98.1508 424.507 102.101 417.907 105.101C411.407 108.101 403.157 109.601 393.157 109.601Z"/>
</mask>
<path d="M-341.55 2.80077H-317.25V107.801H-341.55V2.80077ZM-389.25 107.801H-413.55V2.80077H-389.25V107.801ZM-339.75 64.7508H-391.05V44.2008H-339.75V64.7508ZM-302.407 107.801V2.80077H-278.107V107.801H-302.407ZM-212.489 109.601C-220.789 109.601 -228.439 108.301 -235.439 105.701C-242.339 103.001 -248.389 99.2008 -253.589 94.3008C-258.689 89.4008 -262.689 83.6508 -265.589 77.0508C-268.389 70.4508 -269.789 63.2008 -269.789 55.3008C-269.789 47.4008 -268.389 40.1508 -265.589 33.5508C-262.689 26.9508 -258.639 21.2008 -253.439 16.3008C-248.239 11.4008 -242.139 7.65077 -235.139 5.05077C-228.139 2.35078 -220.439 1.00078 -212.039 1.00078C-202.739 1.00078 -194.389 2.55078 -186.989 5.65077C-179.489 8.75077 -173.189 13.2508 -168.089 19.1508L-183.689 33.5508C-187.489 29.5508 -191.639 26.6008 -196.139 24.7008C-200.639 22.7008 -205.539 21.7008 -210.839 21.7008C-215.939 21.7008 -220.589 22.5008 -224.789 24.1008C-228.989 25.7008 -232.639 28.0008 -235.739 31.0008C-238.739 34.0008 -241.089 37.5508 -242.789 41.6508C-244.389 45.7508 -245.189 50.3008 -245.189 55.3008C-245.189 60.2008 -244.389 64.7008 -242.789 68.8008C-241.089 72.9008 -238.739 76.5008 -235.739 79.6008C-232.639 82.6008 -229.039 84.9008 -224.939 86.5008C-220.739 88.1008 -216.139 88.9008 -211.139 88.9008C-206.339 88.9008 -201.689 88.1508 -197.189 86.6508C-192.589 85.0508 -188.139 82.4008 -183.839 78.7008L-170.039 96.2508C-175.739 100.551 -182.389 103.851 -189.989 106.151C-197.489 108.451 -204.989 109.601 -212.489 109.601ZM-192.239 93.1008V53.6508H-170.039V96.2508L-192.239 93.1008ZM-85.466 2.80077H-61.166V107.801H-85.466V2.80077ZM-133.166 107.801H-157.466V2.80077H-133.166V107.801ZM-83.666 64.7508H-134.966V44.2008H-83.666V64.7508ZM58.157 2.80077H82.457V107.801H58.157V2.80077ZM10.457 107.801H-13.843V2.80077H10.457V107.801ZM59.957 64.7508H8.65703V44.2008H59.957V64.7508ZM119.65 45.1008H170.2V64.0008H119.65V45.1008ZM121.45 88.3008H178.6V107.801H97.2996V2.80077H176.65V22.3008H121.45V88.3008ZM210.284 45.1008H260.834V64.0008H210.284V45.1008ZM212.084 88.3008H269.234V107.801H187.934V2.80077H267.284V22.3008H212.084V88.3008ZM278.569 107.801V2.80077H302.869V88.0008H355.519V107.801H278.569ZM393.157 109.601C384.757 109.601 376.707 108.501 369.007 106.301C361.307 104.001 355.107 101.051 350.407 97.4508L358.657 79.1508C363.157 82.3508 368.457 85.0008 374.557 87.1008C380.757 89.1008 387.007 90.1008 393.307 90.1008C398.107 90.1008 401.957 89.6508 404.857 88.7508C407.857 87.7508 410.057 86.4008 411.457 84.7008C412.857 83.0008 413.557 81.0508 413.557 78.8508C413.557 76.0508 412.457 73.8508 410.257 72.2508C408.057 70.5508 405.157 69.2008 401.557 68.2008C397.957 67.1008 393.957 66.1008 389.557 65.2008C385.257 64.2008 380.907 63.0008 376.507 61.6008C372.207 60.2008 368.257 58.4008 364.657 56.2008C361.057 54.0008 358.107 51.1008 355.807 47.5008C353.607 43.9008 352.507 39.3008 352.507 33.7008C352.507 27.7008 354.107 22.2508 357.307 17.3508C360.607 12.3508 365.507 8.40077 372.007 5.50078C378.607 2.50078 386.857 1.00078 396.757 1.00078C403.357 1.00078 409.857 1.80078 416.257 3.40078C422.657 4.90077 428.307 7.20077 433.207 10.3008L425.707 28.7508C420.807 25.9508 415.907 23.9008 411.007 22.6008C406.107 21.2008 401.307 20.5008 396.607 20.5008C391.907 20.5008 388.057 21.0508 385.057 22.1508C382.057 23.2508 379.907 24.7008 378.607 26.5008C377.307 28.2008 376.657 30.2008 376.657 32.5008C376.657 35.2008 377.757 37.4008 379.957 39.1008C382.157 40.7008 385.057 42.0008 388.657 43.0008C392.257 44.0008 396.207 45.0008 400.507 46.0008C404.907 47.0008 409.257 48.1508 413.557 49.4508C417.957 50.7508 421.957 52.5008 425.557 54.7008C429.157 56.9008 432.057 59.8008 434.257 63.4008C436.557 67.0008 437.707 71.5508 437.707 77.0508C437.707 82.9508 436.057 88.3508 432.757 93.2508C429.457 98.1508 424.507 102.101 417.907 105.101C411.407 108.101 403.157 109.601 393.157 109.601Z" fill="#999999" fill-opacity="0.4"/>
<path d="M-341.55 2.80077V1.80077H-342.55V2.80077H-341.55ZM-317.25 2.80077H-316.25V1.80077H-317.25V2.80077ZM-317.25 107.801V108.801H-316.25V107.801H-317.25ZM-341.55 107.801H-342.55V108.801H-341.55V107.801ZM-389.25 107.801V108.801H-388.25V107.801H-389.25ZM-413.55 107.801H-414.55V108.801H-413.55V107.801ZM-413.55 2.80077V1.80077H-414.55V2.80077H-413.55ZM-389.25 2.80077H-388.25V1.80077H-389.25V2.80077ZM-339.75 64.7508V65.7508H-338.75V64.7508H-339.75ZM-391.05 64.7508H-392.05V65.7508H-391.05V64.7508ZM-391.05 44.2008V43.2008H-392.05V44.2008H-391.05ZM-339.75 44.2008H-338.75V43.2008H-339.75V44.2008ZM-341.55 2.80077V3.80077H-317.25V2.80077V1.80077H-341.55V2.80077ZM-317.25 2.80077H-318.25V107.801H-317.25H-316.25V2.80077H-317.25ZM-317.25 107.801V106.801H-341.55V107.801V108.801H-317.25V107.801ZM-341.55 107.801H-340.55V2.80077H-341.55H-342.55V107.801H-341.55ZM-389.25 107.801V106.801H-413.55V107.801V108.801H-389.25V107.801ZM-413.55 107.801H-412.55V2.80077H-413.55H-414.55V107.801H-413.55ZM-413.55 2.80077V3.80077H-389.25V2.80077V1.80077H-413.55V2.80077ZM-389.25 2.80077H-390.25V107.801H-389.25H-388.25V2.80077H-389.25ZM-339.75 64.7508V63.7508H-391.05V64.7508V65.7508H-339.75V64.7508ZM-391.05 64.7508H-390.05V44.2008H-391.05H-392.05V64.7508H-391.05ZM-391.05 44.2008V45.2008H-339.75V44.2008V43.2008H-391.05V44.2008ZM-339.75 44.2008H-340.75V64.7508H-339.75H-338.75V44.2008H-339.75ZM-302.407 107.801H-303.407V108.801H-302.407V107.801ZM-302.407 2.80077V1.80077H-303.407V2.80077H-302.407ZM-278.107 2.80077H-277.107V1.80077H-278.107V2.80077ZM-278.107 107.801V108.801H-277.107V107.801H-278.107ZM-302.407 107.801H-301.407V2.80077H-302.407H-303.407V107.801H-302.407ZM-302.407 2.80077V3.80077H-278.107V2.80077V1.80077H-302.407V2.80077ZM-278.107 2.80077H-279.107V107.801H-278.107H-277.107V2.80077H-278.107ZM-278.107 107.801V106.801H-302.407V107.801V108.801H-278.107V107.801ZM-235.439 105.701L-235.803 106.632L-235.795 106.635L-235.787 106.638L-235.439 105.701ZM-253.589 94.3008L-254.282 95.0219L-254.274 95.0286L-253.589 94.3008ZM-265.589 77.0508L-266.509 77.4414L-266.504 77.453L-265.589 77.0508ZM-265.589 33.5508L-266.504 33.1485L-266.509 33.1602L-265.589 33.5508ZM-253.439 16.3008L-252.753 17.0286V17.0286L-253.439 16.3008ZM-235.139 5.05077L-234.79 5.98827L-234.779 5.98377L-235.139 5.05077ZM-186.989 5.65077L-187.375 6.57312L-187.371 6.57494L-186.989 5.65077ZM-168.089 19.1508L-167.41 19.8856L-166.699 19.2291L-167.332 18.4968L-168.089 19.1508ZM-183.689 33.5508L-184.414 34.2395L-183.735 34.9542L-183.01 34.2856L-183.689 33.5508ZM-196.139 24.7008L-196.545 25.6146L-196.536 25.6184L-196.528 25.622L-196.139 24.7008ZM-235.739 31.0008L-236.434 30.2822L-236.44 30.2879L-236.446 30.2937L-235.739 31.0008ZM-242.789 41.6508L-243.712 41.2678L-243.716 41.2775L-243.72 41.2872L-242.789 41.6508ZM-242.789 68.8008L-243.72 69.1643L-243.716 69.1741L-243.712 69.1838L-242.789 68.8008ZM-235.739 79.6008L-236.457 80.2962L-236.446 80.308L-236.434 80.3194L-235.739 79.6008ZM-224.939 86.5008L-225.302 87.4324L-225.295 87.4353L-224.939 86.5008ZM-197.189 86.6508L-196.872 87.5995L-196.86 87.5953L-197.189 86.6508ZM-183.839 78.7008L-183.053 78.0827L-183.699 77.261L-184.491 77.9428L-183.839 78.7008ZM-170.039 96.2508L-169.436 97.0491L-168.622 96.4347L-169.253 95.6327L-170.039 96.2508ZM-189.989 106.151L-190.278 105.194L-190.282 105.195L-189.989 106.151ZM-192.239 93.1008H-193.239V93.9689L-192.379 94.0909L-192.239 93.1008ZM-192.239 53.6508V52.6508H-193.239V53.6508H-192.239ZM-170.039 53.6508H-169.039V52.6508H-170.039V53.6508ZM-170.039 96.2508L-170.179 97.2409L-169.039 97.4027V96.2508H-170.039ZM-212.489 109.601V108.601C-220.683 108.601 -228.214 107.318 -235.09 104.763L-235.439 105.701L-235.787 106.638C-228.664 109.284 -220.894 110.601 -212.489 110.601V109.601ZM-235.439 105.701L-235.074 104.77C-241.86 102.114 -247.799 98.382 -252.903 93.573L-253.589 94.3008L-254.274 95.0286C-248.978 100.02 -242.818 103.887 -235.803 106.632L-235.439 105.701ZM-253.589 94.3008L-252.896 93.5797C-257.9 88.7721 -261.825 83.1311 -264.673 76.6485L-265.589 77.0508L-266.504 77.453C-263.553 84.1705 -259.478 90.0294 -254.281 95.0219L-253.589 94.3008ZM-265.589 77.0508L-264.668 76.6602C-267.411 70.1958 -268.789 63.0803 -268.789 55.3008H-269.789H-270.789C-270.789 63.3212 -269.367 70.7057 -266.509 77.4413L-265.589 77.0508ZM-269.789 55.3008H-268.789C-268.789 47.5212 -267.411 40.4057 -264.668 33.9413L-265.589 33.5508L-266.509 33.1602C-269.367 39.8958 -270.789 47.2803 -270.789 55.3008H-269.789ZM-265.589 33.5508L-264.673 33.953C-261.827 27.4747 -257.854 21.8357 -252.753 17.0286L-253.439 16.3008L-254.124 15.573C-259.423 20.5658 -263.551 26.4268 -266.504 33.1485L-265.589 33.5508ZM-253.439 16.3008L-252.753 17.0286C-247.655 12.2245 -241.671 8.54375 -234.79 5.9882L-235.139 5.05077L-235.487 4.11335C-242.607 6.7578 -248.823 10.5771 -254.124 15.573L-253.439 16.3008ZM-235.139 5.05077L-234.779 5.98377C-227.907 3.33305 -220.33 2.00078 -212.039 2.00078V1.00078V0.000778198C-220.547 0.000778198 -228.371 1.36851 -235.499 4.11777L-235.139 5.05077ZM-212.039 1.00078V2.00078C-202.85 2.00078 -194.635 3.53188 -187.375 6.57311L-186.989 5.65077L-186.602 4.72843C-194.143 1.56968 -202.627 0.000778198 -212.039 0.000778198V1.00078ZM-186.989 5.65077L-187.371 6.57494C-180.009 9.61783 -173.839 14.0276 -168.845 19.8047L-168.089 19.1508L-167.332 18.4968C-172.538 12.4739 -178.969 7.88372 -186.607 4.72661L-186.989 5.65077ZM-168.089 19.1508L-168.767 18.416L-184.367 32.816L-183.689 33.5508L-183.01 34.2856L-167.41 19.8856L-168.089 19.1508ZM-183.689 33.5508L-182.964 32.862C-186.846 28.7751 -191.107 25.7396 -195.75 23.7795L-196.139 24.7008L-196.528 25.622C-192.17 27.462 -188.131 30.3264 -184.414 34.2395L-183.689 33.5508ZM-196.139 24.7008L-195.733 23.787C-200.37 21.7259 -205.41 20.7008 -210.839 20.7008V21.7008V22.7008C-205.668 22.7008 -200.907 23.6757 -196.545 25.6146L-196.139 24.7008ZM-210.839 21.7008V20.7008C-216.044 20.7008 -220.817 21.5176 -225.145 23.1663L-224.789 24.1008L-224.433 25.0353C-220.361 23.484 -215.833 22.7008 -210.839 22.7008V21.7008ZM-224.789 24.1008L-225.145 23.1663C-229.466 24.8125 -233.233 27.184 -236.434 30.2822L-235.739 31.0008L-235.043 31.7194C-232.045 28.8175 -228.511 26.5891 -224.433 25.0353L-224.789 24.1008ZM-235.739 31.0008L-236.446 30.2937C-239.543 33.3907 -241.965 37.0523 -243.712 41.2678L-242.789 41.6508L-241.865 42.0338C-240.213 38.0493 -237.935 34.6108 -235.032 31.7079L-235.739 31.0008ZM-242.789 41.6508L-243.72 41.2872C-245.371 45.5178 -246.189 50.1932 -246.189 55.3008H-245.189H-244.189C-244.189 50.4084 -243.406 45.9838 -241.857 42.0143L-242.789 41.6508ZM-245.189 55.3008H-246.189C-246.189 60.3111 -245.37 64.936 -243.72 69.1643L-242.789 68.8008L-241.857 68.4372C-243.407 64.4655 -244.189 60.0905 -244.189 55.3008H-245.189ZM-242.789 68.8008L-243.712 69.1838C-241.966 73.3965 -239.547 77.1033 -236.457 80.2962L-235.739 79.6008L-235.02 78.9054C-237.93 75.8983 -240.212 72.4051 -241.865 68.4178L-242.789 68.8008ZM-235.739 79.6008L-236.434 80.3194C-233.237 83.4136 -229.523 85.7851 -225.302 87.4324L-224.939 86.5008L-224.575 85.5692C-228.554 84.0165 -232.041 81.788 -235.043 78.8822L-235.739 79.6008ZM-224.939 86.5008L-225.295 87.4353C-220.969 89.0832 -216.247 89.9008 -211.139 89.9008V88.9008V87.9008C-216.031 87.9008 -220.508 87.1184 -224.583 85.5663L-224.939 86.5008ZM-211.139 88.9008V89.9008C-206.232 89.9008 -201.476 89.1339 -196.872 87.5995L-197.189 86.6508L-197.505 85.7021C-201.902 87.1677 -206.445 87.9008 -211.139 87.9008V88.9008ZM-197.189 86.6508L-196.86 87.5953C-192.124 85.9478 -187.566 83.2274 -183.186 79.4588L-183.839 78.7008L-184.491 77.9428C-188.711 81.5741 -193.054 84.1538 -197.517 85.7063L-197.189 86.6508ZM-183.839 78.7008L-184.625 79.3189L-170.825 96.8689L-170.039 96.2508L-169.253 95.6327L-183.053 78.0827L-183.839 78.7008ZM-170.039 96.2508L-170.641 95.4525C-176.237 99.674 -182.778 102.924 -190.278 105.194L-189.989 106.151L-189.699 107.108C-181.999 104.778 -175.24 101.428 -169.436 97.0491L-170.039 96.2508ZM-189.989 106.151L-190.282 105.195C-197.691 107.467 -205.093 108.601 -212.489 108.601V109.601V110.601C-204.885 110.601 -197.286 109.435 -189.695 107.107L-189.989 106.151ZM-192.239 93.1008H-191.239V53.6508H-192.239H-193.239V93.1008H-192.239ZM-192.239 53.6508V54.6508H-170.039V53.6508V52.6508H-192.239V53.6508ZM-170.039 53.6508H-171.039V96.2508H-170.039H-169.039V53.6508H-170.039ZM-170.039 96.2508L-169.898 95.2607L-192.098 92.1107L-192.239 93.1008L-192.379 94.0909L-170.179 97.2409L-170.039 96.2508ZM-85.466 2.80077V1.80077H-86.466V2.80077H-85.466ZM-61.166 2.80077H-60.166V1.80077H-61.166V2.80077ZM-61.166 107.801V108.801H-60.166V107.801H-61.166ZM-85.466 107.801H-86.466V108.801H-85.466V107.801ZM-133.166 107.801V108.801H-132.166V107.801H-133.166ZM-157.466 107.801H-158.466V108.801H-157.466V107.801ZM-157.466 2.80077V1.80077H-158.466V2.80077H-157.466ZM-133.166 2.80077H-132.166V1.80077H-133.166V2.80077ZM-83.666 64.7508V65.7508H-82.666V64.7508H-83.666ZM-134.966 64.7508H-135.966V65.7508H-134.966V64.7508ZM-134.966 44.2008V43.2008H-135.966V44.2008H-134.966ZM-83.666 44.2008H-82.666V43.2008H-83.666V44.2008ZM-85.466 2.80077V3.80077H-61.166V2.80077V1.80077H-85.466V2.80077ZM-61.166 2.80077H-62.166V107.801H-61.166H-60.166V2.80077H-61.166ZM-61.166 107.801V106.801H-85.466V107.801V108.801H-61.166V107.801ZM-85.466 107.801H-84.466V2.80077H-85.466H-86.466V107.801H-85.466ZM-133.166 107.801V106.801H-157.466V107.801V108.801H-133.166V107.801ZM-157.466 107.801H-156.466V2.80077H-157.466H-158.466V107.801H-157.466ZM-157.466 2.80077V3.80077H-133.166V2.80077V1.80077H-157.466V2.80077ZM-133.166 2.80077H-134.166V107.801H-133.166H-132.166V2.80077H-133.166ZM-83.666 64.7508V63.7508H-134.966V64.7508V65.7508H-83.666V64.7508ZM-134.966 64.7508H-133.966V44.2008H-134.966H-135.966V64.7508H-134.966ZM-134.966 44.2008V45.2008H-83.666V44.2008V43.2008H-134.966V44.2008ZM-83.666 44.2008H-84.666V64.7508H-83.666H-82.666V44.2008H-83.666ZM58.157 2.80077V1.80077H57.157V2.80077H58.157ZM82.457 2.80077H83.457V1.80077H82.457V2.80077ZM82.457 107.801V108.801H83.457V107.801H82.457ZM58.157 107.801H57.157V108.801H58.157V107.801ZM10.457 107.801V108.801H11.457V107.801H10.457ZM-13.843 107.801H-14.843V108.801H-13.843V107.801ZM-13.843 2.80077V1.80077H-14.843V2.80077H-13.843ZM10.457 2.80077H11.457V1.80077H10.457V2.80077ZM59.957 64.7508V65.7508H60.957V64.7508H59.957ZM8.65704 64.7508H7.65704V65.7508H8.65704V64.7508ZM8.65704 44.2008V43.2008H7.65704V44.2008H8.65704ZM59.957 44.2008H60.957V43.2008H59.957V44.2008ZM58.157 2.80077V3.80077H82.457V2.80077V1.80077H58.157V2.80077ZM82.457 2.80077H81.457V107.801H82.457H83.457V2.80077H82.457ZM82.457 107.801V106.801H58.157V107.801V108.801H82.457V107.801ZM58.157 107.801H59.157V2.80077H58.157H57.157V107.801H58.157ZM10.457 107.801V106.801H-13.843V107.801V108.801H10.457V107.801ZM-13.843 107.801H-12.843V2.80077H-13.843H-14.843V107.801H-13.843ZM-13.843 2.80077V3.80077H10.457V2.80077V1.80077H-13.843V2.80077ZM10.457 2.80077H9.45703V107.801H10.457H11.457V2.80077H10.457ZM59.957 64.7508V63.7508H8.65704V64.7508V65.7508H59.957V64.7508ZM8.65704 64.7508H9.65704V44.2008H8.65704H7.65704V64.7508H8.65704ZM8.65704 44.2008V45.2008H59.957V44.2008V43.2008H8.65704V44.2008ZM59.957 44.2008H58.957V64.7508H59.957H60.957V44.2008H59.957ZM119.65 45.1008V44.1008H118.65V45.1008H119.65ZM170.2 45.1008H171.2V44.1008H170.2V45.1008ZM170.2 64.0008V65.0008H171.2V64.0008H170.2ZM119.65 64.0008H118.65V65.0008H119.65V64.0008ZM121.45 88.3008H120.45V89.3008H121.45V88.3008ZM178.6 88.3008H179.6V87.3008H178.6V88.3008ZM178.6 107.801V108.801H179.6V107.801H178.6ZM97.2996 107.801H96.2996V108.801H97.2996V107.801ZM97.2996 2.80077V1.80077H96.2996V2.80077H97.2996ZM176.65 2.80077H177.65V1.80077H176.65V2.80077ZM176.65 22.3008V23.3008H177.65V22.3008H176.65ZM121.45 22.3008V21.3008H120.45V22.3008H121.45ZM119.65 45.1008V46.1008H170.2V45.1008V44.1008H119.65V45.1008ZM170.2 45.1008H169.2V64.0008H170.2H171.2V45.1008H170.2ZM170.2 64.0008V63.0008H119.65V64.0008V65.0008H170.2V64.0008ZM119.65 64.0008H120.65V45.1008H119.65H118.65V64.0008H119.65ZM121.45 88.3008V89.3008H178.6V88.3008V87.3008H121.45V88.3008ZM178.6 88.3008H177.6V107.801H178.6H179.6V88.3008H178.6ZM178.6 107.801V106.801H97.2996V107.801V108.801H178.6V107.801ZM97.2996 107.801H98.2996V2.80077H97.2996H96.2996V107.801H97.2996ZM97.2996 2.80077V3.80077H176.65V2.80077V1.80077H97.2996V2.80077ZM176.65 2.80077H175.65V22.3008H176.65H177.65V2.80077H176.65ZM176.65 22.3008V21.3008H121.45V22.3008V23.3008H176.65V22.3008ZM121.45 22.3008H120.45V88.3008H121.45H122.45V22.3008H121.45ZM210.284 45.1008V44.1008H209.284V45.1008H210.284ZM260.834 45.1008H261.834V44.1008H260.834V45.1008ZM260.834 64.0008V65.0008H261.834V64.0008H260.834ZM210.284 64.0008H209.284V65.0008H210.284V64.0008ZM212.084 88.3008H211.084V89.3008H212.084V88.3008ZM269.234 88.3008H270.234V87.3008H269.234V88.3008ZM269.234 107.801V108.801H270.234V107.801H269.234ZM187.934 107.801H186.934V108.801H187.934V107.801ZM187.934 2.80077V1.80077H186.934V2.80077H187.934ZM267.284 2.80077H268.284V1.80077H267.284V2.80077ZM267.284 22.3008V23.3008H268.284V22.3008H267.284ZM212.084 22.3008V21.3008H211.084V22.3008H212.084ZM210.284 45.1008V46.1008H260.834V45.1008V44.1008H210.284V45.1008ZM260.834 45.1008H259.834V64.0008H260.834H261.834V45.1008H260.834ZM260.834 64.0008V63.0008H210.284V64.0008V65.0008H260.834V64.0008ZM210.284 64.0008H211.284V45.1008H210.284H209.284V64.0008H210.284ZM212.084 88.3008V89.3008H269.234V88.3008V87.3008H212.084V88.3008ZM269.234 88.3008H268.234V107.801H269.234H270.234V88.3008H269.234ZM269.234 107.801V106.801H187.934V107.801V108.801H269.234V107.801ZM187.934 107.801H188.934V2.80077H187.934H186.934V107.801H187.934ZM187.934 2.80077V3.80077H267.284V2.80077V1.80077H187.934V2.80077ZM267.284 2.80077H266.284V22.3008H267.284H268.284V2.80077H267.284ZM267.284 22.3008V21.3008H212.084V22.3008V23.3008H267.284V22.3008ZM212.084 22.3008H211.084V88.3008H212.084H213.084V22.3008H212.084ZM278.569 107.801H277.569V108.801H278.569V107.801ZM278.569 2.80077V1.80077H277.569V2.80077H278.569ZM302.869 2.80077H303.869V1.80077H302.869V2.80077ZM302.869 88.0008H301.869V89.0008H302.869V88.0008ZM355.519 88.0008H356.519V87.0008H355.519V88.0008ZM355.519 107.801V108.801H356.519V107.801H355.519ZM278.569 107.801H279.569V2.80077H278.569H277.569V107.801H278.569ZM278.569 2.80077V3.80077H302.869V2.80077V1.80077H278.569V2.80077ZM302.869 2.80077H301.869V88.0008H302.869H303.869V2.80077H302.869ZM302.869 88.0008V89.0008H355.519V88.0008V87.0008H302.869V88.0008ZM355.519 88.0008H354.519V107.801H355.519H356.519V88.0008H355.519ZM355.519 107.801V106.801H278.569V107.801V108.801H355.519V107.801ZM369.007 106.301L368.721 107.259L368.732 107.262L369.007 106.301ZM350.407 97.4508L349.495 97.0398L349.17 97.7626L349.799 98.2447L350.407 97.4508ZM358.657 79.1508L359.237 78.3358L358.245 77.6309L357.745 78.7398L358.657 79.1508ZM374.557 87.1008L374.232 88.0463L374.241 88.0495L374.25 88.0525L374.557 87.1008ZM404.857 88.7508L405.153 89.7058L405.163 89.7028L405.173 89.6995L404.857 88.7508ZM411.457 84.7008L410.685 84.0651V84.0651L411.457 84.7008ZM410.257 72.2508L409.646 73.0421L409.657 73.051L409.669 73.0595L410.257 72.2508ZM401.557 68.2008L401.265 69.1571L401.277 69.1609L401.289 69.1643L401.557 68.2008ZM389.557 65.2008L389.331 66.1748L389.344 66.1778L389.357 66.1805L389.557 65.2008ZM376.507 61.6008L376.197 62.5517L376.204 62.5537L376.507 61.6008ZM364.657 56.2008L364.136 57.0541V57.0541L364.657 56.2008ZM355.807 47.5008L354.954 48.0222L354.959 48.0308L354.964 48.0392L355.807 47.5008ZM357.307 17.3508L356.472 16.7999L356.47 16.804L357.307 17.3508ZM372.007 5.50078L372.414 6.41403L372.421 6.41114L372.007 5.50078ZM416.257 3.40077L416.015 4.37092L416.022 4.37271L416.029 4.37439L416.257 3.40077ZM433.207 10.3008L434.133 10.6774L434.448 9.90275L433.742 9.4557L433.207 10.3008ZM425.707 28.7508L425.211 29.619L426.203 30.186L426.633 29.1274L425.707 28.7508ZM411.007 22.6008L410.732 23.5623L410.741 23.5649L410.751 23.5673L411.007 22.6008ZM385.057 22.1508L384.713 21.2119V21.2119L385.057 22.1508ZM378.607 26.5008L379.401 27.1082L379.41 27.0974L379.418 27.0863L378.607 26.5008ZM379.957 39.1008L379.346 39.8921L379.357 39.901L379.369 39.9095L379.957 39.1008ZM388.657 43.0008L388.389 43.9643V43.9643L388.657 43.0008ZM400.507 46.0008L400.281 46.9748L400.285 46.9759L400.507 46.0008ZM413.557 49.4508L413.268 50.408L413.274 50.4098L413.557 49.4508ZM425.557 54.7008L426.078 53.8475V53.8475L425.557 54.7008ZM434.257 63.4008L433.404 63.9222L433.409 63.9308L433.414 63.9392L434.257 63.4008ZM432.757 93.2508L433.586 93.8094V93.8094L432.757 93.2508ZM417.907 105.101L417.493 104.19L417.488 104.193L417.907 105.101ZM393.157 109.601V108.601C384.845 108.601 376.888 107.513 369.282 105.339L369.007 106.301L368.732 107.262C376.526 109.489 384.669 110.601 393.157 110.601V109.601ZM369.007 106.301L369.293 105.343C361.671 103.066 355.591 100.162 351.015 96.6569L350.407 97.4508L349.799 98.2447C354.623 101.94 360.943 104.936 368.721 107.259L369.007 106.301ZM350.407 97.4508L351.319 97.8618L359.569 79.5618L358.657 79.1508L357.745 78.7398L349.495 97.0398L350.407 97.4508ZM358.657 79.1508L358.078 79.9657C362.667 83.2296 368.056 85.9203 374.232 88.0463L374.557 87.1008L374.883 86.1552C368.858 84.0813 363.647 81.472 359.237 78.3358L358.657 79.1508ZM374.557 87.1008L374.25 88.0525C380.546 90.0834 386.899 91.1008 393.307 91.1008V90.1008V89.1008C387.115 89.1008 380.968 88.1182 374.864 86.1491L374.557 87.1008ZM393.307 90.1008V91.1008C398.156 91.1008 402.118 90.6477 405.153 89.7058L404.857 88.7508L404.561 87.7957C401.796 88.6538 398.058 89.1008 393.307 89.1008V90.1008ZM404.857 88.7508L405.173 89.6995C408.278 88.6646 410.668 87.2317 412.229 85.3365L411.457 84.7008L410.685 84.0651C409.446 85.5699 407.436 86.837 404.541 87.8021L404.857 88.7508ZM411.457 84.7008L412.229 85.3365C413.776 83.4576 414.557 81.283 414.557 78.8508H413.557H412.557C412.557 80.8186 411.938 82.5439 410.685 84.0651L411.457 84.7008ZM413.557 78.8508H414.557C414.557 75.7419 413.313 73.2366 410.845 71.442L410.257 72.2508L409.669 73.0595C411.601 74.4649 412.557 76.3596 412.557 78.8508H413.557ZM410.257 72.2508L410.868 71.4595C408.537 69.6583 405.509 68.2607 401.825 67.2373L401.557 68.2008L401.289 69.1643C404.805 70.1409 407.577 71.4433 409.646 73.0421L410.257 72.2508ZM401.557 68.2008L401.849 67.2444C398.214 66.1336 394.183 65.1262 389.757 64.2211L389.557 65.2008L389.357 66.1805C393.731 67.0753 397.7 68.0679 401.265 69.1571L401.557 68.2008ZM389.557 65.2008L389.784 64.2268C385.51 63.233 381.186 62.0402 376.81 60.6479L376.507 61.6008L376.204 62.5537C380.628 63.9614 385.004 65.1685 389.331 66.1748L389.557 65.2008ZM376.507 61.6008L376.817 60.6499C372.586 59.2723 368.707 57.504 365.178 55.3475L364.657 56.2008L364.136 57.0541C367.807 59.2975 371.829 61.1292 376.197 62.5517L376.507 61.6008ZM364.657 56.2008L365.178 55.3475C361.71 53.2277 358.869 50.4361 356.65 46.9624L355.807 47.5008L354.964 48.0392C357.345 51.7655 360.404 54.7738 364.136 57.0541L364.657 56.2008ZM355.807 47.5008L356.66 46.9793C354.583 43.5798 353.507 39.1754 353.507 33.7008H352.507H351.507C351.507 39.4262 352.631 44.2218 354.954 48.0222L355.807 47.5008ZM352.507 33.7008H353.507C353.507 27.8898 355.053 22.6307 358.144 17.8976L357.307 17.3508L356.47 16.804C353.161 21.8709 351.507 27.5118 351.507 33.7008H352.507ZM357.307 17.3508L358.142 17.9016C361.318 13.0885 366.055 9.25117 372.414 6.41401L372.007 5.50078L371.6 4.58755C364.959 7.55038 359.896 11.6131 356.472 16.7999L357.307 17.3508ZM372.007 5.50078L372.421 6.41114C378.853 3.48764 386.951 2.00078 396.757 2.00078V1.00078V0.000778198C386.763 0.000778198 378.362 1.51392 371.593 4.59041L372.007 5.50078ZM396.757 1.00078V2.00078C403.275 2.00078 409.694 2.79076 416.015 4.37092L416.257 3.40077L416.5 2.43063C410.02 0.810799 403.439 0.000778198 396.757 0.000778198V1.00078ZM416.257 3.40077L416.029 4.37439C422.335 5.85229 427.878 8.11288 432.672 11.1459L433.207 10.3008L433.742 9.4557C428.736 6.28867 422.979 3.94925 416.485 2.42716L416.257 3.40077ZM433.207 10.3008L432.281 9.92419L424.781 28.3742L425.707 28.7508L426.633 29.1274L434.133 10.6774L433.207 10.3008ZM425.707 28.7508L426.203 27.8825C421.236 25.0443 416.256 22.9588 411.263 21.6342L411.007 22.6008L410.751 23.5673C415.558 24.8428 420.378 26.8573 425.211 29.619L425.707 28.7508ZM411.007 22.6008L411.282 21.6393C406.3 20.2159 401.407 19.5008 396.607 19.5008V20.5008V21.5008C401.207 21.5008 405.914 22.1857 410.732 23.5623L411.007 22.6008ZM396.607 20.5008V19.5008C391.84 19.5008 387.862 20.0572 384.713 21.2119L385.057 22.1508L385.401 23.0897C388.252 22.0443 391.974 21.5008 396.607 21.5008V20.5008ZM385.057 22.1508L384.713 21.2119C381.604 22.3518 379.254 23.897 377.796 25.9153L378.607 26.5008L379.418 27.0863C380.56 25.5045 382.51 24.1498 385.401 23.0897L385.057 22.1508ZM378.607 26.5008L377.813 25.8933C376.369 27.7811 375.657 29.9987 375.657 32.5008H376.657H377.657C377.657 30.4029 378.245 28.6204 379.401 27.1082L378.607 26.5008ZM376.657 32.5008H375.657C375.657 35.5211 376.909 38.0093 379.346 39.8921L379.957 39.1008L380.568 38.3095C378.605 36.7923 377.657 34.8805 377.657 32.5008H376.657ZM379.957 39.1008L379.369 39.9095C381.694 41.6007 384.714 42.9434 388.389 43.9643L388.657 43.0008L388.925 42.0373C385.4 41.0581 382.62 39.8008 380.545 38.292L379.957 39.1008ZM388.657 43.0008L388.389 43.9643C392.005 44.9687 395.969 45.9721 400.281 46.9748L400.507 46.0008L400.734 45.0268C396.445 44.0294 392.509 43.0329 388.925 42.0373L388.657 43.0008ZM400.507 46.0008L400.285 46.9759C404.663 47.9707 408.99 49.1148 413.268 50.408L413.557 49.4508L413.846 48.4936C409.524 47.1868 405.151 46.0308 400.729 45.0256L400.507 46.0008ZM413.557 49.4508L413.274 50.4098C417.597 51.6872 421.516 53.4033 425.036 55.5541L425.557 54.7008L426.078 53.8475C422.398 51.5982 418.317 49.8143 413.84 48.4918L413.557 49.4508ZM425.557 54.7008L425.036 55.5541C428.5 57.6713 431.286 60.4576 433.404 63.9222L434.257 63.4008L435.11 62.8793C432.828 59.144 429.814 56.1302 426.078 53.8475L425.557 54.7008ZM434.257 63.4008L433.414 63.9392C435.586 67.3381 436.707 71.6874 436.707 77.0508H437.707H438.707C438.707 71.4142 437.528 66.6634 435.1 62.8624L434.257 63.4008ZM437.707 77.0508H436.707C436.707 82.7515 435.117 87.957 431.928 92.6922L432.757 93.2508L433.586 93.8094C436.997 88.7445 438.707 83.1501 438.707 77.0508H437.707ZM432.757 93.2508L431.928 92.6922C428.752 97.4073 423.963 101.25 417.493 104.19L417.907 105.101L418.321 106.011C425.051 102.952 430.162 98.8943 433.586 93.8094L432.757 93.2508ZM417.907 105.101L417.488 104.193C411.161 107.113 403.066 108.601 393.157 108.601V109.601V110.601C403.248 110.601 411.653 109.088 418.326 106.009L417.907 105.101Z" fill="#999999" fill-opacity="0.4" mask="url(#path-1-outside-1_3_1094)"/>
</svg>
