<svg xmlns="http://www.w3.org/2000/svg" width="128" height="40" viewBox="0 0 128 40" fill="none">
<path fill-rule="evenodd" clip-rule="evenodd" d="M68.6305 1.26066C68.259 1.31121 67.7581 1.39357 67.5173 1.44383L67.0796 1.53504L67.5549 1.80928C67.8163 1.96013 68.1652 2.17038 68.3303 2.27643C68.6297 2.46883 68.6319 2.46905 69.1183 2.35806C69.7482 2.21437 71.8921 2.19437 72.5705 2.32587C76.0652 3.00328 77.8804 5.19453 78.8374 9.89097C79.3485 12.3993 79.5463 14.8366 79.6015 19.3077C79.7622 32.3163 78.009 37.3568 72.9211 38.5135C71.9248 38.7399 69.9077 38.7384 68.9033 38.5104C65.4989 37.7373 63.7057 35.2356 62.8545 30.0718C62.4073 27.3589 62.2572 24.9384 62.258 20.4516C62.2589 15.9662 62.4092 13.533 62.851 10.8523C63.5481 6.62292 64.9616 4.06614 67.1821 3.01804C67.4204 2.90557 67.6159 2.79583 67.6164 2.77421C67.6169 2.75251 67.213 2.5382 66.7186 2.29784L65.8199 1.86087L65.274 2.03186C63.9612 2.44307 62.415 3.18379 61.1633 4.00135C58.6875 5.61829 56.8067 7.65375 55.462 10.1713C53.5118 13.8227 52.8107 17.7524 53.1835 22.9425L53.2299 23.5884L53.5756 23.2723C54.2834 22.6249 54.9681 22.3805 55.9615 22.4209L56.5339 22.4442L56.7547 22.0776C56.8761 21.876 57.5519 20.6804 58.2565 19.4208C58.9612 18.1612 59.6176 17.0048 59.7154 16.8511C59.9241 16.5227 60.1727 16.3913 60.4541 16.4607C60.633 16.5049 60.6519 16.5381 60.6174 16.7469C60.596 16.8767 60.3082 17.5476 59.9781 18.2376C59.2354 19.7898 57.7781 23.1734 57.4656 24.0712C57.3377 24.4384 57.2552 24.7955 57.2822 24.8646C57.3931 25.1487 57.8782 24.9213 58.7807 24.1622C59.2217 23.7912 59.523 23.7159 59.5712 23.9647C59.6098 24.1641 59.0269 24.8052 58.4863 25.1579C57.6577 25.6985 57.0073 25.7807 56.6146 25.3946C56.4745 25.2568 56.4354 25.1395 56.4354 24.857C56.4354 24.6583 56.4719 24.3926 56.5166 24.2666C56.701 23.7463 56.5494 23.7942 55.9931 24.432C55.333 25.1888 54.596 25.7561 54.0499 25.9275C53.5875 26.0727 53.5914 25.96 54.001 27.3518C54.8815 30.3436 56.7171 33.3448 58.8339 35.2538C61.4198 37.5857 64.3444 38.9964 67.8521 39.6039C69.0229 39.8066 71.4818 39.8836 72.7312 39.7567C77.9434 39.2272 82.5885 36.5152 85.4259 32.3451C86.0889 31.3706 87.1165 29.3223 87.5054 28.2005C87.9452 26.9312 88.479 24.7322 88.4802 24.1841C88.4806 24.0278 88.1641 24.343 87.6708 24.9902C87.4389 25.2947 87.1652 25.6351 87.0627 25.7467C86.8546 25.9733 86.5294 26.0169 86.3788 25.8384C86.2655 25.7043 86.2654 25.7045 87.6842 22.7589L88.7056 20.6383L88.7054 19.7331C88.705 18.5715 88.5987 17.4162 88.3624 16.0062C87.7238 12.1971 86.0526 8.7828 83.6062 6.28964C80.8337 3.46408 77.381 1.79342 73.2233 1.26553C72.154 1.12974 69.6123 1.12701 68.6305 1.26066ZM0 2.36669C0 2.6162 0.014184 2.62757 0.772159 2.98712C1.84323 3.49515 2.26529 3.88326 2.66995 4.73233C2.89757 5.20996 3.64383 7.57271 5.32721 13.1455C6.61457 17.4074 7.85667 21.5158 8.08744 22.2752L8.50696 23.6561L9.07521 23.6774L9.64354 23.6988L9.63379 23.9884C9.62208 24.339 9.46448 24.4736 9.06636 24.4736C8.90913 24.4736 8.7805 24.4948 8.7805 24.5206C8.7805 24.5463 9.74486 27.7594 10.9235 31.6607C12.1022 35.5619 13.084 38.8125 13.1053 38.8841C13.1413 39.0052 13.285 39.0131 15.0981 38.9948L17.0521 38.9752L18.5819 34.3997C19.4233 31.8831 20.1609 29.6656 20.2212 29.4718L20.3307 29.1195L20.1675 29.2319C19.9449 29.3853 19.6399 29.3732 19.4268 29.2026C19.252 29.0628 19.2496 29.0432 19.2577 27.7451C19.2622 27.0214 19.2484 26.4791 19.2268 26.54C19.2054 26.6009 18.9612 27.2965 18.6842 28.0856C18.3516 29.0336 18.1656 29.4719 18.1362 29.3771C17.9702 28.8427 11.9064 5.98581 11.8474 5.67216C11.75 5.15438 11.8718 4.57868 12.1617 4.1851C12.4691 3.76762 13.0674 3.39936 14.0942 2.99561L14.9719 2.65037L14.9951 2.38145L15.0185 2.11245H7.50921H5.15449e-07L0 2.36669ZM20.4878 2.39112C20.4878 2.66853 20.4912 2.67155 21.248 3.07376C22.2755 3.61988 22.6724 3.98061 23.0058 4.67167C23.243 5.16294 24.5414 8.9225 24.7733 9.78935C24.8622 10.1217 24.8532 10.1507 22.8544 15.9516L20.8463 21.78L20.4819 24.5474C20.2815 26.0696 20.1164 27.3565 20.1151 27.4072C20.1137 27.4579 20.1603 27.4994 20.2185 27.4994C20.281 27.4994 20.6471 26.8717 21.1115 25.9681L21.8986 24.4367L23.7904 18.7542C24.8309 15.6288 25.708 13.0252 25.7397 12.9684C25.7805 12.8951 25.8205 12.9379 25.8778 13.116C25.9221 13.2539 26.7164 15.7081 27.6428 18.5697C28.5691 21.4313 29.3504 23.8489 29.379 23.9421C29.423 24.0863 29.541 23.9309 30.1631 22.909C31.4537 20.7892 32.592 19.1259 34.0559 17.2209C34.7171 16.3605 34.8297 16.1751 34.7886 16.0141C34.7619 15.9094 34.0458 13.544 33.1974 10.7577C31.8506 6.33458 31.6503 5.61209 31.6193 5.06442C31.559 3.99994 31.8118 3.73544 33.5103 3.08623L34.6342 2.65665L34.6575 2.38455L34.6808 2.11245H27.5843H20.4878V2.39112ZM43.6023 2.39193V2.67148L44.3507 2.91266C45.6829 3.34209 46.1479 3.81936 46.177 4.78694C46.1859 5.08546 46.2201 5.25313 46.2665 5.22604C46.3078 5.20198 46.6961 4.94421 47.1295 4.65321C48.208 3.92917 49.6424 3.08955 50.6048 2.61886C51.0461 2.403 51.4072 2.20079 51.4072 2.16942C51.4072 2.13806 49.6511 2.11245 47.5048 2.11245H43.6023V2.39193ZM91.1822 2.38935V2.66625L91.9262 2.95133C93.3295 3.48918 93.7483 3.83759 94.0171 4.69071C94.1379 5.0738 94.1465 6.12913 94.1465 20.4516C94.1465 37.084 94.1679 36.2238 93.738 36.8904C93.4642 37.3148 92.9852 37.617 91.9942 37.9906L91.1822 38.2966V38.5806V38.8645H98.3491H105.516V38.5861V38.3076L104.977 38.1271C103.648 37.6822 102.944 36.914 102.744 35.6912C102.695 35.3952 102.665 33.4447 102.664 30.599L102.663 25.9865L102.195 25.9707C101.226 25.9381 100.713 25.5642 100.714 24.8923C100.715 24.1105 101.246 23.4132 102.158 22.9948L102.664 22.7623V21.6254V20.4885H105.773H108.882L109.068 20.0889C109.171 19.8692 109.277 19.6201 109.304 19.5354L109.354 19.3815H106.006H102.659L102.682 12.2045C102.703 5.64722 102.716 4.99513 102.834 4.65204C103.114 3.83944 103.528 3.47391 104.72 2.98845L105.513 2.66595L105.514 2.3892L105.516 2.11246H98.3492H91.1822L91.1822 2.38935ZM113.396 2.39046V2.66846L114.135 2.94587C115.342 3.39915 115.779 3.74387 116.077 4.47913C116.201 4.78296 116.212 5.32332 116.231 12.0938L116.252 19.3815H113.229H110.206L110.04 19.8058C109.949 20.0393 109.853 20.2883 109.826 20.3593C109.781 20.4811 109.963 20.4885 113.013 20.4885H116.248V22.0596V23.6308L116.452 23.6278C116.751 23.6236 116.768 23.8506 116.481 24.0126L116.253 24.1415L116.232 30.1561C116.212 35.7066 116.2 36.1961 116.077 36.4978C115.779 37.2344 115.159 37.7204 114.046 38.0921L113.396 38.309V38.5868V38.8645H120.605H127.814L127.791 38.5878C127.769 38.3237 127.747 38.3031 127.317 38.1394C125.857 37.5829 125.437 37.2918 125.087 36.5926L124.841 36.1001V20.49V4.87993L125.012 4.51499C125.379 3.73095 125.677 3.49959 127.008 2.96048C127.762 2.6551 127.768 2.65112 127.791 2.38271L127.814 2.11245H120.605H113.396V2.39046ZM46.8856 6.04337C46.1541 6.56432 45.9133 6.77708 45.8639 6.9463C45.8282 7.06808 44.3037 12.282 42.4761 18.5328C40.6484 24.7836 39.1306 29.9231 39.1031 29.9539C39.0756 29.9847 38.756 29.0342 38.3929 27.8418L37.7325 25.6736L37.3841 25.7803C37.158 25.8496 36.8722 25.8733 36.5698 25.8476C35.6189 25.7671 35.1691 25.323 35.3445 24.6379C35.5066 24.0048 36.2016 23.1568 36.6976 22.9867L36.899 22.9177L36.0692 20.1956L35.2394 17.4735L34.5384 18.409C33.0186 20.4376 31.6183 22.5263 30.4166 24.5569L29.8764 25.4699L32.0699 32.2226L34.2635 38.9752L36.2156 38.9948L38.1676 39.0145L40.134 32.2053C41.2155 28.4603 42.1659 25.1713 42.2461 24.8966C42.3262 24.6219 42.3591 24.417 42.3192 24.4413C42.2792 24.4655 42.0642 24.7412 41.8414 25.0539C41.6186 25.3665 41.3695 25.6818 41.2877 25.7546C41.089 25.9315 40.7203 25.8922 40.6929 25.6913C40.6708 25.5293 42.0441 22.967 42.365 22.5715C42.5288 22.3696 42.6016 22.3325 42.7652 22.3679L42.9652 22.411L45.2835 14.3835C46.5586 9.96832 47.6754 6.13178 47.7653 5.85777C47.8552 5.58375 47.9094 5.36014 47.8856 5.36073C47.8619 5.36144 47.4119 5.66854 46.8856 6.04337ZM88.5235 22.7244C88.4899 22.8379 88.4834 22.9513 88.509 22.9765C88.5929 23.0591 88.6424 22.9412 88.6133 22.7276L88.5847 22.518L88.5235 22.7244ZM97.6762 22.9261C98.0269 23.2501 97.8318 23.7739 97.1972 24.2126C96.8922 24.4234 96.8293 24.4372 96.14 24.4441C95.7368 24.4481 95.3682 24.475 95.3208 24.5038C95.2155 24.5678 95.2078 24.9505 95.3082 25.135C95.4787 25.4483 96.3846 25.5297 97.0691 25.2932C97.55 25.1269 97.9422 24.8694 98.6417 24.2602C99.1876 23.7848 99.3623 23.7123 99.3623 23.9607C99.3623 24.6492 97.7996 25.7603 96.5662 25.9489C95.7062 26.0804 94.9047 25.8851 94.5659 25.4615C94.2294 25.0408 94.4339 24.1362 94.9949 23.5631C95.7189 22.8238 97.1876 22.4748 97.6762 22.9261ZM54.8969 23.0979C54.1948 23.4208 53.6262 24.2087 53.5322 24.9888C53.4957 25.292 53.5103 25.3646 53.6156 25.4043C53.7952 25.4721 54.0111 25.3584 54.4648 24.9568C54.8884 24.5819 55.9851 23.3303 55.9851 23.2218C55.9851 23.0792 55.7373 22.9239 55.5107 22.9246C55.3795 22.925 55.1033 23.003 54.8969 23.0979ZM96.4738 23.334C96.1171 23.4546 95.7975 23.6805 95.7975 23.8121C95.7975 23.95 96.1719 24.0314 96.448 23.9535C96.7581 23.8661 96.9608 23.6765 96.9608 23.4738C96.9608 23.2535 96.8261 23.2149 96.4738 23.334ZM102.364 23.53C102.043 23.7438 102.03 23.8906 102.325 23.9683C102.61 24.0432 102.68 23.9694 102.651 23.629L102.627 23.3553L102.364 23.53ZM36.8789 23.767C36.3142 24.1559 35.9983 25.1977 36.4064 25.3251C36.5797 25.3791 37.0365 25.2424 37.3078 25.0553L37.5048 24.9195L37.313 24.2907C37.2076 23.9448 37.1012 23.6619 37.0765 23.6619C37.0518 23.6619 36.9628 23.7092 36.8789 23.767ZM124.156 23.9884C124.139 24.4912 124.127 24.4936 121.876 24.4472C119.684 24.402 119.349 24.3601 119.387 24.137C119.401 24.0583 119.456 23.9494 119.509 23.8949C119.66 23.7422 120.551 23.6797 122.439 23.6897L124.165 23.6988L124.156 23.9884ZM101.632 24.4846C101.52 24.5948 101.509 24.9463 101.612 25.135C101.7 25.2967 102.066 25.433 102.413 25.433H102.664V24.9533V24.4736L102.345 24.4726C102.17 24.4721 101.959 24.4538 101.876 24.432C101.794 24.4102 101.684 24.4339 101.632 24.4846Z" fill="#FF99D6"/>
<path fill-rule="evenodd" clip-rule="evenodd" d="M59.0673 0.0655098C54.2447 0.504444 48.9707 2.97009 43.7075 7.24629C37.1084 12.608 30.9716 20.4234 27.6257 27.7268C27.1811 28.6972 26.9417 29.0909 26.8488 29.0043C26.8201 28.9777 26.8671 28.0186 26.953 26.8729C27.2886 22.3971 27.3056 21.351 27.0606 20.2713C26.7963 19.1072 26.1232 18.7098 25.2569 19.2066C24.5373 19.6193 23.9227 20.5801 21.9376 24.3957C21.104 25.998 20.372 27.3495 20.3111 27.399C20.0278 27.629 20.0084 27.8198 21.1723 18.9099C21.475 16.5928 21.7362 14.0584 21.8218 12.6092C21.8684 11.8204 21.8612 11.7431 21.7373 11.6966C21.5004 11.6077 21.2248 11.8279 21.1243 12.1865C21.0735 12.3675 20.8768 13.8716 20.6871 15.529C20.4973 17.1864 20.1413 20.1135 19.8959 22.0336C19.0688 28.5067 19.0614 29.1629 19.8157 29.1629C20.0432 29.1629 20.1565 29.1119 20.3423 28.926C20.4888 28.7793 21.2643 27.3577 22.3771 25.1959C24.5599 20.9554 25.3959 19.6195 25.8189 19.6958C26.0231 19.7326 26.1972 20.1893 26.2945 20.9437C26.3662 21.4985 26.3663 22.0693 26.295 23.588C26.1653 26.3524 25.8532 30.2354 25.6408 31.7246C25.5111 32.6344 25.4809 33.0399 25.5353 33.1394C25.6359 33.3233 26.0642 33.327 26.2322 33.1454C26.3001 33.072 26.8077 31.9227 27.3605 30.5914C28.4497 27.9675 29.0374 26.7606 30.1555 24.8527C32.2985 21.1955 34.8249 17.7184 37.8912 14.206C39.0802 12.844 42.5836 9.40441 43.8841 8.3223C49.1281 3.95864 53.9668 1.5382 58.6542 0.933968C59.6773 0.802113 61.749 0.82019 62.7289 0.969543C65.9243 1.45669 69.1689 3.22211 71.3622 5.6671C71.9551 6.328 72.0921 6.41642 72.2965 6.27023C72.4274 6.17652 72.4278 6.15969 72.3051 5.90796C72.1264 5.54135 70.5623 3.98238 69.6577 3.26937C66.5116 0.789547 62.9501 -0.287865 59.0673 0.0655098ZM50.9 16.1818C50.8385 16.2421 50.6101 16.7152 50.3926 17.2331C50.1752 17.7512 49.5798 19.1271 49.0695 20.2909C47.3896 24.1225 47.1596 25.1244 47.8131 25.7638C47.9848 25.9318 48.0435 25.9448 48.475 25.9109C49.0041 25.8694 49.6322 25.619 50.117 25.2565C50.5889 24.9036 51.4438 24.0714 51.4438 23.9649C51.4438 23.7677 51.1929 23.888 50.638 24.3514C50.0473 24.8445 49.0078 25.4145 48.699 25.4145C48.3133 25.4145 48.151 25.0273 48.2913 24.442C48.474 23.68 49.4783 21.103 50.8545 17.865C51.1847 17.0882 51.4439 16.3771 51.4305 16.2848C51.4009 16.0805 51.0693 16.0162 50.9 16.1818ZM110.912 16.1818C110.85 16.2421 110.629 16.6987 110.42 17.1964C110.211 17.6942 109.615 19.0707 109.096 20.2553C107.399 24.1307 107.17 25.123 107.825 25.7638C107.997 25.9318 108.056 25.9448 108.487 25.9109C109.016 25.8694 109.644 25.619 110.129 25.2565C110.601 24.9036 111.456 24.0714 111.456 23.9649C111.456 23.7677 111.205 23.888 110.65 24.3514C110.059 24.8445 109.02 25.4145 108.711 25.4145C108.325 25.4145 108.163 25.0273 108.303 24.442C108.486 23.68 109.49 21.103 110.867 17.865C111.197 17.0882 111.456 16.3771 111.443 16.2848C111.413 16.0805 111.081 16.0162 110.912 16.1818ZM90.8922 16.4237C90.7748 16.4699 90.5438 16.913 89.6817 18.7463C89.3162 19.5235 88.4383 21.359 87.7309 22.8251C87.0234 24.2912 86.4445 25.5564 86.4445 25.6364C86.4445 25.7522 86.4953 25.782 86.693 25.782C87.0053 25.782 87.0868 25.7151 87.5287 25.0968C88.0117 24.4207 88.6774 23.7357 89.4042 23.1666C90.0084 22.6935 90.2429 22.601 90.3226 22.8042C90.3461 22.8643 90.2944 23.2529 90.2075 23.6678C90.0098 24.6129 90.0084 24.8596 90.1999 25.047C90.3979 25.2408 90.6192 25.2325 91.3134 25.0054C92.1793 24.7221 93.1292 24.1656 93.1292 23.9417C93.1292 23.7943 92.8126 23.8833 92.0644 24.2413C90.9431 24.778 90.7558 24.6995 90.9745 23.7845C91.1328 23.1225 91.1368 22.6816 90.9872 22.3985C90.7624 21.9732 90.1462 22.0102 89.3952 22.4944C88.6512 22.9738 88.5538 23.0171 88.5041 22.8904C88.4815 22.8327 88.7889 22.1484 89.1872 21.3697C90.2995 19.195 91.3266 16.8688 91.3266 16.524C91.3266 16.3753 91.1306 16.3301 90.8922 16.4237ZM59.9778 16.5595C59.9149 16.621 59.4503 17.4065 58.9453 18.3051C57.5108 20.8573 56.6928 22.2851 56.6249 22.3551C56.5907 22.3904 56.1967 22.4235 55.7495 22.4287C55.0238 22.437 54.886 22.4607 54.469 22.6492C53.5678 23.0563 52.872 24.022 52.8093 24.9524C52.7804 25.3815 52.7923 25.4225 53.0067 25.6323C53.1921 25.8137 53.2971 25.8555 53.5674 25.8555C53.7503 25.8555 54.0148 25.8177 54.1553 25.7714C54.6053 25.623 55.3121 25.0725 55.9535 24.3705C56.2969 23.9948 56.6056 23.6763 56.6396 23.6628C56.7287 23.6275 56.7166 23.7556 56.583 24.2601C56.3683 25.0711 56.6119 25.488 57.3004 25.488C57.9454 25.488 58.9413 24.8734 59.4421 24.1661C59.6217 23.9125 59.6403 23.8486 59.5509 23.7932C59.3894 23.6932 59.375 23.6991 58.9525 24.0364C58.3311 24.5327 57.6536 24.9735 57.5125 24.9735C57.4411 24.9735 57.3465 24.9074 57.3023 24.8266C57.1912 24.6235 57.4628 23.8585 58.4894 21.4824C59.4062 19.3605 59.4742 19.2097 60.1905 17.7096C60.4672 17.1302 60.6751 16.6094 60.6526 16.552C60.5976 16.4117 60.1235 16.417 59.9778 16.5595ZM78.7006 16.7411C77.9016 17.1544 77.0624 18.6026 75.932 21.5191C75.5951 22.3882 75.2592 23.1594 75.1855 23.2327C75.109 23.3089 74.8766 23.3894 74.6435 23.4203C73.933 23.5147 73.8528 23.7039 74.469 23.8318C74.7269 23.8853 74.8461 23.9485 74.8644 24.0413C74.9201 24.3243 73.706 26.9393 73.1549 27.723C72.5247 28.6193 71.8233 28.8349 70.9257 28.4081C70.6182 28.262 70.5863 28.2595 70.4709 28.3723C70.3556 28.4852 70.3631 28.5086 70.5773 28.7044C71.0223 29.1112 71.7395 29.1932 72.5934 28.9351C73.0264 28.8043 73.1734 28.7121 73.5612 28.3287C74.0725 27.8231 74.7 26.706 75.4046 25.047C75.6191 24.5417 75.8572 24.0647 75.9335 23.9869C76.0386 23.8797 76.2181 23.835 76.674 23.8022C77.391 23.7506 77.594 23.6281 77.1588 23.5099C76.9989 23.4665 76.7937 23.4307 76.7027 23.4305C76.6116 23.4303 76.4506 23.3915 76.3448 23.3443C76.1193 23.2438 76.096 23.3541 76.6598 21.8499C77.1849 20.4485 77.5724 19.5509 78.0718 18.5792C78.5803 17.5898 78.8454 17.2395 79.2706 16.9957C79.5467 16.8374 79.597 16.7788 79.5275 16.6968C79.4068 16.5544 79.0217 16.5751 78.7006 16.7411ZM113.831 22.0361C113.118 22.245 112.946 22.9714 113.381 23.9353C113.593 24.4055 113.605 24.6242 113.428 24.7974C113.355 24.8681 112.975 25.1293 112.583 25.3779C111.5 26.0637 111.149 26.5297 111.416 26.9279C111.619 27.2313 112.009 27.3508 112.617 27.2956C113.636 27.203 114.457 26.9152 114.753 26.5459C114.952 26.2994 114.952 26.0022 114.756 25.3802C114.63 24.9818 114.619 24.8685 114.695 24.7782C114.816 24.6362 115.637 24.2328 116.244 24.0178C116.604 23.8899 116.713 23.8176 116.713 23.7059C116.713 23.5118 116.549 23.5433 115.356 23.9654C114.836 24.1493 114.376 24.2777 114.333 24.2507C114.221 24.1806 113.964 23.6634 113.869 23.3171C113.698 22.6978 114.084 22.1502 114.489 22.4354C114.576 22.4968 114.722 22.5998 114.813 22.6641C115.018 22.8101 115.286 22.7397 115.286 22.5396C115.286 22.1171 114.492 21.8424 113.831 22.0361ZM42.4524 22.4689C42.3265 22.6013 40.8435 25.2261 40.7365 25.506C40.6816 25.6496 40.9408 25.7843 41.1628 25.7276C41.2328 25.7096 41.5095 25.3921 41.7777 25.0219C42.5467 23.9606 42.9567 23.5557 43.5808 23.2413C44.2539 22.9023 44.3835 22.9265 44.3835 23.391C44.3835 23.7319 44.442 23.7821 44.7181 23.6784C44.9978 23.5734 45.1753 22.8377 44.9694 22.6363C44.8331 22.503 44.2293 22.5304 43.6955 22.6941C43.4336 22.7745 43.1945 22.8406 43.164 22.8411C43.1336 22.8416 43.0593 22.7263 42.9988 22.5848C42.873 22.2901 42.6645 22.2459 42.4524 22.4689ZM96.3213 22.7981C95.7947 22.9615 95.4258 23.1857 95.0687 23.5593C94.6613 23.9855 94.4309 24.578 94.5107 24.9943C94.6447 25.6934 95.8049 26.0461 96.9828 25.7459C97.8192 25.5327 98.7856 24.936 99.1671 24.3973C99.3656 24.117 99.4284 23.7976 99.285 23.7976C99.2419 23.7976 98.9171 24.0454 98.563 24.3482C97.6909 25.0943 97.0949 25.3778 96.3981 25.3778C96.108 25.3778 95.7637 25.3336 95.633 25.2796C95.3389 25.1581 95.1778 24.8239 95.2784 24.544C95.3473 24.3523 95.3611 24.3486 96.0662 24.3383C96.8904 24.3262 97.2314 24.2002 97.6241 23.7626C97.9156 23.4376 97.9446 23.071 97.6966 22.845C97.5671 22.7268 97.4359 22.6961 97.077 22.7C96.8267 22.7027 96.4866 22.7469 96.3213 22.7981ZM102.724 22.7749C101.613 23.0313 100.657 24.1449 100.82 24.9943C100.917 25.5006 101.583 25.8555 102.436 25.8555C103.508 25.8555 104.822 25.222 105.46 24.3977C105.661 24.138 105.744 23.7976 105.606 23.7976C105.569 23.7976 105.239 24.0502 104.873 24.3589C103.993 25.1012 103.408 25.3758 102.706 25.377C102.416 25.3774 102.073 25.3336 101.942 25.2796C101.648 25.1581 101.487 24.8239 101.588 24.544C101.656 24.3523 101.67 24.3486 102.375 24.3383C103.2 24.3262 103.541 24.2002 103.933 23.7626C104.166 23.5029 104.246 23.14 104.113 22.945C103.949 22.7043 103.349 22.6309 102.724 22.7749ZM37.7739 22.8548C37.6294 22.8974 37.3509 22.9275 37.1551 22.9217C36.7119 22.9085 36.4655 23.0305 36.0546 23.4667C35.3759 24.1872 35.1909 25.024 35.6288 25.3926C36.0545 25.7508 37.0404 25.8197 37.6613 25.5346C38.3608 25.2133 39.1202 24.2466 39.1243 23.6724C39.1289 23.0131 38.5094 22.6381 37.7739 22.8548ZM55.8341 22.8539C56.1674 23.0024 56.0789 23.2201 55.3478 24.0486C54.6927 24.7912 54.301 25.1482 53.9353 25.336C53.6436 25.4858 53.5468 25.3898 53.5468 24.9508C53.5468 24.1728 54.1582 23.3299 55.0009 22.9459C55.4381 22.7467 55.5629 22.7329 55.8341 22.8539ZM70.897 22.8548C70.7524 22.8974 70.4739 22.9275 70.2781 22.9217C70.0823 22.9158 69.8242 22.9606 69.7045 23.0211C69.2039 23.2745 68.4959 24.3004 68.4942 24.7751C68.4931 25.0768 68.6876 25.394 68.9642 25.5416C69.1453 25.6382 69.3788 25.6712 69.883 25.671C70.7008 25.6707 70.9695 25.5542 71.5578 24.9455C72.1703 24.3119 72.381 23.7208 72.1623 23.2508C71.989 22.8788 71.4199 22.7007 70.897 22.8548ZM97.075 23.2138C97.249 23.4892 96.7652 23.9437 96.2976 23.9443C95.6482 23.945 95.648 23.6436 96.2972 23.327C96.71 23.1257 96.9934 23.0844 97.075 23.2138ZM103.404 23.3295C103.443 23.5965 103.122 23.8805 102.733 23.9234C102.34 23.9668 102.05 23.8533 102.117 23.6823C102.141 23.6202 102.334 23.4714 102.546 23.3516C103.003 23.0929 103.369 23.0835 103.404 23.3295ZM38.2078 23.324C38.8068 23.7345 37.549 25.2593 36.606 25.2659C36.3108 25.268 36.1967 25.1509 36.1967 24.8456C36.1967 24.3073 36.831 23.5319 37.4476 23.3168C37.8285 23.1839 38.006 23.1856 38.2078 23.324ZM71.3309 23.324C71.9298 23.7345 70.672 25.2593 69.729 25.2659C69.4336 25.268 69.3197 25.1508 69.3197 24.8449C69.3197 24.4293 69.6866 23.8517 70.1506 23.5371C70.6267 23.2143 71.0573 23.1365 71.3309 23.324ZM5.48779 23.7188C5.12088 23.7622 4.87626 23.9138 4.87626 24.0977C4.87626 24.2279 5.28259 24.2609 7.29837 24.2946L9.4576 24.3307L9.57281 24.0609C9.63613 23.9125 9.66805 23.7595 9.64364 23.7208C9.5943 23.6427 6.14597 23.641 5.48779 23.7188ZM120.042 23.7177C119.609 23.7692 119.606 23.7705 119.537 23.991C119.502 24.102 119.527 24.1641 119.622 24.204C119.695 24.235 120.727 24.276 121.915 24.295L124.074 24.3295L124.189 24.0603C124.252 23.9122 124.284 23.7595 124.26 23.7208C124.211 23.6434 120.688 23.6407 120.042 23.7177ZM114.05 25.7382C114.121 26.2018 114.043 26.3638 113.671 26.5248C113.306 26.6826 112.546 26.7814 112.252 26.709C111.912 26.6257 112.014 26.4147 112.601 25.9821C113.69 25.1803 113.957 25.1353 114.05 25.7382Z" fill="#0D0D0D"/>
</svg>
